<svg width="512" height="512" viewBox="0 0 512 512" fill="none" xmlns="http://www.w3.org/2000/svg">
  <rect width="512" height="512" rx="128" fill="#3b82f6"/>
  <path d="M256 128C200.772 128 156 172.772 156 228C156 283.228 200.772 328 256 328C311.228 328 356 283.228 356 228C356 172.772 311.228 128 256 128ZM256 308C211.817 308 176 272.183 176 228C176 183.817 211.817 148 256 148C300.183 148 336 183.817 336 228C336 272.183 300.183 308 256 308Z" fill="white"/>
  <path d="M256 168C220.654 168 192 196.654 192 232C192 267.346 220.654 296 256 296C291.346 296 320 267.346 320 232C320 196.654 291.346 168 256 168ZM256 276C234.909 276 218 259.091 218 238C218 216.909 234.909 200 256 200C277.091 200 294 216.909 294 238C294 259.091 277.091 276 256 276Z" fill="white"/>
  <circle cx="256" cy="238" r="20" fill="white"/>
  <path d="M128 352C128 307.817 163.817 272 208 272H304C348.183 272 384 307.817 384 352V384H128V352ZM208 292C178.144 292 154 316.144 154 346V364H358V346C358 316.144 333.856 292 304 292H208Z" fill="white"/>
</svg> 