<svg width="16" height="16" viewBox="0 0 16 16" fill="none" xmlns="http://www.w3.org/2000/svg">
  <path d="M8 2C5.791 2 4 3.791 4 6C4 8.209 5.791 10 8 10C10.209 10 12 8.209 12 6C12 3.791 10.209 2 8 2ZM8 9C6.346 9 5 7.654 5 6C5 4.346 6.346 3 8 3C9.654 3 11 4.346 11 6C11 7.654 9.654 9 8 9Z" fill="#000000"/>
  <circle cx="8" cy="6" r="1.5" fill="#000000"/>
  <path d="M2 11C2 9.346 3.346 8 5 8H11C12.654 8 14 9.346 14 11V12H2V11ZM5 9C4.448 9 4 9.448 4 10V11H12V10C12 9.448 11.552 9 11 9H5Z" fill="#000000"/>
</svg> 